<svg xmlns="http://www.w3.org/2000/svg" xmlns:xlink="http://www.w3.org/1999/xlink" version="1.1" width="160" height="160" viewBox="0 0 160 160" xml:space="preserve">
<desc>Created with Fabric.js 5.2.4</desc>
    <defs>
</defs>
    <g transform="matrix(1 0 0 1 80 80)" id="f485fb5f-419a-4e06-89ad-2af689c3a705"  >
<rect style="stroke: none; stroke-width: 1; stroke-dasharray: none; stroke-linecap: butt; stroke-dashoffset: 0; stroke-linejoin: miter; stroke-miterlimit: 4; fill: rgb(255,255,255); fill-rule: nonzero; opacity: 1; visibility: hidden;" vector-effect="non-scaling-stroke"  x="-80" y="-80" rx="0" ry="0" width="160" height="160" />
</g>
    <g transform="matrix(Infinity NaN NaN Infinity 0 0)" id="33fa6f58-a0b7-4ed7-8cdc-80957716ad3c"  >
</g>
    <g transform="matrix(0.23 0 0 0.23 95.71 80)"  >
<g style="" vector-effect="non-scaling-stroke"   >
		<g transform="matrix(1 0 0 1 0 0)"  >
<path style="stroke: none; stroke-width: 1; stroke-dasharray: none; stroke-linecap: butt; stroke-dashoffset: 0; stroke-linejoin: miter; stroke-miterlimit: 4; fill: rgb(254,254,254); fill-rule: evenodd; opacity: 1;" vector-effect="non-scaling-stroke"  transform=" translate(-249.5, -249.5)" d="M -0.5 -0.5 C 166.167 -0.5 332.833 -0.5 499.5 -0.5 C 499.5 166.167 499.5 332.833 499.5 499.5 C 332.833 499.5 166.167 499.5 -0.5 499.5 C -0.5 332.833 -0.5 166.167 -0.5 -0.5 Z" stroke-linecap="round" />
</g>
    <g transform="matrix(1 0 0 1 -182.16 -41.13)"  >
<path style="stroke: none; stroke-width: 1; stroke-dasharray: none; stroke-linecap: butt; stroke-dashoffset: 0; stroke-linejoin: miter; stroke-miterlimit: 4; fill: rgb(37,37,37); fill-rule: evenodd; opacity: 1;" vector-effect="non-scaling-stroke"  transform=" translate(-67.34, -208.37)" d="M 62.5 193.5 C 76.5215 192.356 83.0215 198.69 82 212.5 C 78.3195 221.092 71.8195 224.592 62.5 223 C 51.9865 217.029 49.8198 208.862 56 198.5 C 57.9651 196.45 60.1318 194.783 62.5 193.5 Z" stroke-linecap="round" />
</g>
    <g transform="matrix(1 0 0 1 -134.17 -41.07)"  >
<path style="stroke: none; stroke-width: 1; stroke-dasharray: none; stroke-linecap: butt; stroke-dashoffset: 0; stroke-linejoin: miter; stroke-miterlimit: 4; fill: rgb(169,169,169); fill-rule: evenodd; opacity: 1;" vector-effect="non-scaling-stroke"  transform=" translate(-115.33, -208.43)" d="M 110.5 193.5 C 126.357 192.849 132.524 200.182 129 215.5 C 123.5 223.664 116.333 225.498 107.5 221 C 97.521 210.663 98.521 201.496 110.5 193.5 Z" stroke-linecap="round" />
</g>
    <g transform="matrix(1 0 0 1 -85.85 -41.06)"  >
<path style="stroke: none; stroke-width: 1; stroke-dasharray: none; stroke-linecap: butt; stroke-dashoffset: 0; stroke-linejoin: miter; stroke-miterlimit: 4; fill: rgb(134,242,170); fill-rule: evenodd; opacity: 1;" vector-effect="non-scaling-stroke"  transform=" translate(-163.65, -208.44)" d="M 159.5 193.5 C 176.342 193.829 181.842 201.829 176 217.5 C 166.234 226.23 157.567 225.23 150 214.5 C 147.249 204.676 150.416 197.676 159.5 193.5 Z" stroke-linecap="round" />
</g>
    <g transform="matrix(1 0 0 1 -184.45 -4.06)"  >
<path style="stroke: none; stroke-width: 1; stroke-dasharray: none; stroke-linecap: butt; stroke-dashoffset: 0; stroke-linejoin: miter; stroke-miterlimit: 4; fill: rgb(165,165,165); fill-rule: evenodd; opacity: 1;" vector-effect="non-scaling-stroke"  transform=" translate(-65.05, -245.44)" d="M 52.5 243.5 C 60.6499 242.507 68.9832 242.174 77.5 242.5 C 77.7947 244.735 77.4614 246.735 76.5 248.5 C 76.5 246.833 76.5 245.167 76.5 243.5 C 68.5 243.5 60.5 243.5 52.5 243.5 Z" stroke-linecap="round" />
</g>
    <g transform="matrix(1 0 0 1 31.55 -4.06)"  >
<path style="stroke: none; stroke-width: 1; stroke-dasharray: none; stroke-linecap: butt; stroke-dashoffset: 0; stroke-linejoin: miter; stroke-miterlimit: 4; fill: rgb(165,165,165); fill-rule: evenodd; opacity: 1;" vector-effect="non-scaling-stroke"  transform=" translate(-281.05, -245.44)" d="M 268.5 243.5 C 276.65 242.507 284.983 242.174 293.5 242.5 C 293.795 244.735 293.461 246.735 292.5 248.5 C 292.5 246.833 292.5 245.167 292.5 243.5 C 284.5 243.5 276.5 243.5 268.5 243.5 Z" stroke-linecap="round" />
</g>
    <g transform="matrix(1 0 0 1 -185 10.5)"  >
<path style="stroke: none; stroke-width: 1; stroke-dasharray: none; stroke-linecap: butt; stroke-dashoffset: 0; stroke-linejoin: miter; stroke-miterlimit: 4; fill: rgb(39,39,39); fill-rule: evenodd; opacity: 1;" vector-effect="non-scaling-stroke"  transform=" translate(-64.5, -260)" d="M 52.5 243.5 C 60.5 243.5 68.5 243.5 76.5 243.5 C 76.5 245.167 76.5 246.833 76.5 248.5 C 70.5 248.5 64.5 248.5 58.5 248.5 C 58.5 251.833 58.5 255.167 58.5 258.5 C 63.8333 258.5 69.1667 258.5 74.5 258.5 C 74.5 260.167 74.5 261.833 74.5 263.5 C 69.1667 263.5 63.8333 263.5 58.5 263.5 C 58.5 267.833 58.5 272.167 58.5 276.5 C 56.5 276.5 54.5 276.5 52.5 276.5 C 52.5 265.5 52.5 254.5 52.5 243.5 Z" stroke-linecap="round" />
</g>
    <g transform="matrix(1 0 0 1 -132.5 10.5)"  >
<path style="stroke: none; stroke-width: 1; stroke-dasharray: none; stroke-linecap: butt; stroke-dashoffset: 0; stroke-linejoin: miter; stroke-miterlimit: 4; fill: rgb(38,38,38); fill-rule: evenodd; opacity: 1;" vector-effect="non-scaling-stroke"  transform=" translate(-117, -260)" d="M 104.5 243.5 C 112.5 243.5 120.5 243.5 128.5 243.5 C 128.5 245.167 128.5 246.833 128.5 248.5 C 122.5 248.5 116.5 248.5 110.5 248.5 C 110.5 251.5 110.5 254.5 110.5 257.5 C 115.833 257.5 121.167 257.5 126.5 257.5 C 126.5 259.167 126.5 260.833 126.5 262.5 C 121.167 262.5 115.833 262.5 110.5 262.5 C 110.5 265.5 110.5 268.5 110.5 271.5 C 116.833 271.5 123.167 271.5 129.5 271.5 C 129.5 273.167 129.5 274.833 129.5 276.5 C 121.167 276.5 112.833 276.5 104.5 276.5 C 104.5 265.5 104.5 254.5 104.5 243.5 Z" stroke-linecap="round" />
</g>
    <g transform="matrix(1 0 0 1 -78 10.47)"  >
<path style="stroke: none; stroke-width: 1; stroke-dasharray: none; stroke-linecap: butt; stroke-dashoffset: 0; stroke-linejoin: miter; stroke-miterlimit: 4; fill: rgb(40,40,40); fill-rule: evenodd; opacity: 1;" vector-effect="non-scaling-stroke"  transform=" translate(-171.5, -259.97)" d="M 157.5 243.5 C 163.509 243.334 169.509 243.501 175.5 244 C 183.398 246.29 186.231 251.457 184 259.5 C 182.518 261.98 180.685 264.147 178.5 266 C 180.429 269.599 182.763 272.933 185.5 276 C 183.167 276.667 180.833 276.667 178.5 276 C 176.623 273.079 174.623 270.246 172.5 267.5 C 169.572 266.516 166.572 266.183 163.5 266.5 C 163.5 269.833 163.5 273.167 163.5 276.5 C 161.5 276.5 159.5 276.5 157.5 276.5 C 157.5 265.5 157.5 254.5 157.5 243.5 Z" stroke-linecap="round" />
</g>
    <g transform="matrix(1 0 0 1 -22 10.47)"  >
<path style="stroke: none; stroke-width: 1; stroke-dasharray: none; stroke-linecap: butt; stroke-dashoffset: 0; stroke-linejoin: miter; stroke-miterlimit: 4; fill: rgb(40,40,40); fill-rule: evenodd; opacity: 1;" vector-effect="non-scaling-stroke"  transform=" translate(-227.5, -259.97)" d="M 213.5 243.5 C 219.509 243.334 225.509 243.501 231.5 244 C 239.398 246.29 242.231 251.457 240 259.5 C 238.518 261.98 236.685 264.147 234.5 266 C 236.429 269.599 238.763 272.933 241.5 276 C 239.167 276.667 236.833 276.667 234.5 276 C 232.623 273.079 230.623 270.246 228.5 267.5 C 225.572 266.516 222.572 266.183 219.5 266.5 C 219.5 269.833 219.5 273.167 219.5 276.5 C 217.5 276.5 215.5 276.5 213.5 276.5 C 213.5 265.5 213.5 254.5 213.5 243.5 Z" stroke-linecap="round" />
</g>
    <g transform="matrix(1 0 0 1 31.5 10.5)"  >
<path style="stroke: none; stroke-width: 1; stroke-dasharray: none; stroke-linecap: butt; stroke-dashoffset: 0; stroke-linejoin: miter; stroke-miterlimit: 4; fill: rgb(38,38,38); fill-rule: evenodd; opacity: 1;" vector-effect="non-scaling-stroke"  transform=" translate(-281, -260)" d="M 268.5 243.5 C 276.5 243.5 284.5 243.5 292.5 243.5 C 292.5 245.167 292.5 246.833 292.5 248.5 C 286.833 248.5 281.167 248.5 275.5 248.5 C 274.523 251.287 274.19 254.287 274.5 257.5 C 279.833 257.5 285.167 257.5 290.5 257.5 C 290.5 258.833 290.5 260.167 290.5 261.5 C 285.167 261.5 279.833 261.5 274.5 261.5 C 274.187 265.042 274.521 268.375 275.5 271.5 C 281.5 271.5 287.5 271.5 293.5 271.5 C 293.5 273.167 293.5 274.833 293.5 276.5 C 285.167 276.5 276.833 276.5 268.5 276.5 C 268.5 265.5 268.5 254.5 268.5 243.5 Z" stroke-linecap="round" />
</g>
    <g transform="matrix(1 0 0 1 82 10.5)"  >
<path style="stroke: none; stroke-width: 1; stroke-dasharray: none; stroke-linecap: butt; stroke-dashoffset: 0; stroke-linejoin: miter; stroke-miterlimit: 4; fill: rgb(35,35,35); fill-rule: evenodd; opacity: 1;" vector-effect="non-scaling-stroke"  transform=" translate(-331.5, -260)" d="M 317.5 243.5 C 326.833 243.5 336.167 243.5 345.5 243.5 C 345.5 245.167 345.5 246.833 345.5 248.5 C 341.833 248.5 338.167 248.5 334.5 248.5 C 334.5 257.833 334.5 267.167 334.5 276.5 C 332.5 276.5 330.5 276.5 328.5 276.5 C 328.5 267.167 328.5 257.833 328.5 248.5 C 324.833 248.5 321.167 248.5 317.5 248.5 C 317.5 246.833 317.5 245.167 317.5 243.5 Z" stroke-linecap="round" />
</g>
    <g transform="matrix(1 0 0 1 -78.45 5.5)"  >
<path style="stroke: none; stroke-width: 1; stroke-dasharray: none; stroke-linecap: butt; stroke-dashoffset: 0; stroke-linejoin: miter; stroke-miterlimit: 4; fill: rgb(251,251,251); fill-rule: evenodd; opacity: 1;" vector-effect="non-scaling-stroke"  transform=" translate(-171.05, -255)" d="M 163.5 248.5 C 167.182 248.335 170.848 248.501 174.5 249 C 178.292 251.053 179.458 254.219 178 258.5 C 177.097 259.701 175.931 260.535 174.5 261 C 170.848 261.499 167.182 261.665 163.5 261.5 C 163.5 257.167 163.5 252.833 163.5 248.5 Z" stroke-linecap="round" />
</g>
    <g transform="matrix(1 0 0 1 -22.45 5.5)"  >
<path style="stroke: none; stroke-width: 1; stroke-dasharray: none; stroke-linecap: butt; stroke-dashoffset: 0; stroke-linejoin: miter; stroke-miterlimit: 4; fill: rgb(251,251,251); fill-rule: evenodd; opacity: 1;" vector-effect="non-scaling-stroke"  transform=" translate(-227.05, -255)" d="M 219.5 248.5 C 223.182 248.335 226.848 248.501 230.5 249 C 234.292 251.053 235.458 254.219 234 258.5 C 233.097 259.701 231.931 260.535 230.5 261 C 226.848 261.499 223.182 261.665 219.5 261.5 C 219.5 257.167 219.5 252.833 219.5 248.5 Z" stroke-linecap="round" />
</g>
    <g transform="matrix(1 0 0 1 33.44 10.5)"  >
<path style="stroke: none; stroke-width: 1; stroke-dasharray: none; stroke-linecap: butt; stroke-dashoffset: 0; stroke-linejoin: miter; stroke-miterlimit: 4; fill: rgb(134,134,134); fill-rule: evenodd; opacity: 1;" vector-effect="non-scaling-stroke"  transform=" translate(-282.94, -260)" d="M 275.5 248.5 C 275.5 251.167 275.5 253.833 275.5 256.5 C 280.833 256.5 286.167 256.5 291.5 256.5 C 291.5 258.5 291.5 260.5 291.5 262.5 C 286.167 262.5 280.833 262.5 275.5 262.5 C 275.5 265.5 275.5 268.5 275.5 271.5 C 274.521 268.375 274.187 265.042 274.5 261.5 C 279.833 261.5 285.167 261.5 290.5 261.5 C 290.5 260.167 290.5 258.833 290.5 257.5 C 285.167 257.5 279.833 257.5 274.5 257.5 C 274.19 254.287 274.523 251.287 275.5 248.5 Z" stroke-linecap="round" />
</g>
    <g transform="matrix(1 0 0 1 -182.45 18)"  >
<path style="stroke: none; stroke-width: 1; stroke-dasharray: none; stroke-linecap: butt; stroke-dashoffset: 0; stroke-linejoin: miter; stroke-miterlimit: 4; fill: rgb(183,183,183); fill-rule: evenodd; opacity: 1;" vector-effect="non-scaling-stroke"  transform=" translate(-67.05, -267.5)" d="M 74.5 258.5 C 75.4614 260.265 75.7947 262.265 75.5 264.5 C 70.1667 264.5 64.8333 264.5 59.5 264.5 C 59.8168 268.702 59.4834 272.702 58.5 276.5 C 58.5 272.167 58.5 267.833 58.5 263.5 C 63.8333 263.5 69.1667 263.5 74.5 263.5 C 74.5 261.833 74.5 260.167 74.5 258.5 Z" stroke-linecap="round" />
</g>
    <g transform="matrix(1 0 0 1 -193.99 65.5)"  >
<path style="stroke: none; stroke-width: 1; stroke-dasharray: none; stroke-linecap: butt; stroke-dashoffset: 0; stroke-linejoin: miter; stroke-miterlimit: 4; fill: rgb(102,102,102); fill-rule: evenodd; opacity: 1;" vector-effect="non-scaling-stroke"  transform=" translate(-55.51, -315)" d="M 56.5 307.5 C 55.5119 312.64 55.1786 317.974 55.5 323.5 C 54.1843 317.987 54.1843 312.32 55.5 306.5 C 56.1067 306.624 56.44 306.957 56.5 307.5 Z" stroke-linecap="round" />
</g>
    <g transform="matrix(1 0 0 1 -188.06 65.5)"  >
<path style="stroke: none; stroke-width: 1; stroke-dasharray: none; stroke-linecap: butt; stroke-dashoffset: 0; stroke-linejoin: miter; stroke-miterlimit: 4; fill: rgb(47,47,47); fill-rule: evenodd; opacity: 1;" vector-effect="non-scaling-stroke"  transform=" translate(-61.44, -315)" d="M 55.5 323.5 C 55.1786 317.974 55.5119 312.64 56.5 307.5 C 56.5 309.5 56.5 311.5 56.5 313.5 C 59.5 313.5 62.5 313.5 65.5 313.5 C 65.1924 311.076 65.5258 308.743 66.5 306.5 C 67.8333 312.167 67.8333 317.833 66.5 323.5 C 65.52 320.914 65.1866 318.247 65.5 315.5 C 62.5 315.5 59.5 315.5 56.5 315.5 C 56.8064 318.385 56.4731 321.052 55.5 323.5 Z" stroke-linecap="round" />
</g>
    <g transform="matrix(1 0 0 1 -124.5 65.5)"  >
<path style="stroke: none; stroke-width: 1; stroke-dasharray: none; stroke-linecap: butt; stroke-dashoffset: 0; stroke-linejoin: miter; stroke-miterlimit: 4; fill: rgb(48,48,48); fill-rule: evenodd; opacity: 1;" vector-effect="non-scaling-stroke"  transform=" translate(-125, -315)" d="M 122.5 308.5 C 121.539 310.265 121.205 312.265 121.5 314.5 C 124.059 314.198 126.393 314.532 128.5 315.5 C 126.167 315.5 123.833 315.5 121.5 315.5 C 121.5 317.5 121.5 319.5 121.5 321.5 C 124.247 321.187 126.914 321.52 129.5 322.5 C 126.572 323.484 123.572 323.817 120.5 323.5 C 120.5 317.833 120.5 312.167 120.5 306.5 C 123.572 306.183 126.572 306.516 129.5 307.5 C 127.257 308.474 124.924 308.808 122.5 308.5 Z" stroke-linecap="round" />
</g>
    <g transform="matrix(1 0 0 1 -145.75 65.5)"  >
<path style="stroke: none; stroke-width: 1; stroke-dasharray: none; stroke-linecap: butt; stroke-dashoffset: 0; stroke-linejoin: miter; stroke-miterlimit: 4; fill: rgb(53,53,53); fill-rule: evenodd; opacity: 1;" vector-effect="non-scaling-stroke"  transform=" translate(-103.75, -315)" d="M 97.5 306.5 C 100.925 310.361 103.091 315.027 104 320.5 C 105.619 315.635 107.619 310.968 110 306.5 C 109.293 312.455 107.46 318.122 104.5 323.5 C 101.602 318.157 99.2684 312.49 97.5 306.5 Z" stroke-linecap="round" />
</g>
    <g transform="matrix(1 0 0 1 -103.43 65.47)"  >
<path style="stroke: none; stroke-width: 1; stroke-dasharray: none; stroke-linecap: butt; stroke-dashoffset: 0; stroke-linejoin: miter; stroke-miterlimit: 4; fill: rgb(60,60,60); fill-rule: evenodd; opacity: 1;" vector-effect="non-scaling-stroke"  transform=" translate(-146.07, -314.97)" d="M 139.5 306.5 C 140.675 306.281 141.675 306.614 142.5 307.5 C 144.802 311.633 147.302 315.633 150 319.5 C 150.172 315.129 150.672 310.796 151.5 306.5 C 154.8 327.346 151.633 328.679 142 310.5 C 141.828 314.871 141.328 319.204 140.5 323.5 C 139.505 317.872 139.171 312.206 139.5 306.5 Z" stroke-linecap="round" />
</g>
    <g transform="matrix(1 0 0 1 -124.05 62.5)"  >
<path style="stroke: none; stroke-width: 1; stroke-dasharray: none; stroke-linecap: butt; stroke-dashoffset: 0; stroke-linejoin: miter; stroke-miterlimit: 4; fill: rgb(122,122,122); fill-rule: evenodd; opacity: 1;" vector-effect="non-scaling-stroke"  transform=" translate(-125.45, -312)" d="M 122.5 308.5 C 122.5 310.167 122.5 311.833 122.5 313.5 C 124.924 313.192 127.257 313.526 129.5 314.5 C 129.376 315.107 129.043 315.44 128.5 315.5 C 126.393 314.532 124.059 314.198 121.5 314.5 C 121.205 312.265 121.539 310.265 122.5 308.5 Z" stroke-linecap="round" />
</g>
    <g transform="matrix(1 0 0 1 -166 65.49)"  >
<path style="stroke: none; stroke-width: 1; stroke-dasharray: none; stroke-linecap: butt; stroke-dashoffset: 0; stroke-linejoin: miter; stroke-miterlimit: 4; fill: rgb(57,57,57); fill-rule: evenodd; opacity: 1;" vector-effect="non-scaling-stroke"  transform=" translate(-83.5, -314.99)" d="M 82.5 306.5 C 83.4959 306.414 84.3292 306.748 85 307.5 C 86.8333 312.333 88.6667 317.167 90.5 322 C 90.1667 322.5 89.8333 323 89.5 323.5 C 88.6433 322.264 87.9766 320.931 87.5 319.5 C 84.9135 318.52 82.2469 318.187 79.5 318.5 C 79.5792 319.93 79.2458 321.264 78.5 322.5 C 77.8333 323.833 77.1667 323.833 76.5 322.5 C 78.7034 317.221 80.7034 311.887 82.5 306.5 Z" stroke-linecap="round" />
</g>
    <g transform="matrix(1 0 0 1 -165.5 63.55)"  >
<path style="stroke: none; stroke-width: 1; stroke-dasharray: none; stroke-linecap: butt; stroke-dashoffset: 0; stroke-linejoin: miter; stroke-miterlimit: 4; fill: rgb(222,222,222); fill-rule: evenodd; opacity: 1;" vector-effect="non-scaling-stroke"  transform=" translate(-84, -313.05)" d="M 83.5 309.5 C 84.4805 311.396 85.4805 313.396 86.5 315.5 C 84.9547 316.452 83.288 316.785 81.5 316.5 C 81.767 314.035 82.4336 311.701 83.5 309.5 Z" stroke-linecap="round" />
</g>
</g>
</g>
</svg>